<?xml version="1.0" standalone="no"?>
<!DOCTYPE svg PUBLIC "-//W3C//DTD SVG 20010904//EN"
 "http://www.w3.org/TR/2001/REC-SVG-20010904/DTD/svg10.dtd">
<svg version="1.0" xmlns="http://www.w3.org/2000/svg"
 width="512.000000pt" height="512.000000pt" viewBox="0 0 512.000000 512.000000"
 preserveAspectRatio="xMidYMid meet">
<metadata>
Created by potrace 1.14, written by Peter Selinger 2001-2017
</metadata>
<g transform="translate(0.000000,512.000000) scale(0.100000,-0.100000)"
fill="#000000" stroke="none">
<path d="M2846 4955 c-16 -9 -37 -26 -45 -38 -39 -55 -95 -106 -167 -149 -103
-61 -147 -105 -186 -187 -30 -61 -32 -74 -32 -166 0 -123 28 -205 85 -243 62
-43 146 -11 168 63 6 22 3 47 -11 90 -24 74 -19 144 14 184 13 15 52 45 88 65
36 20 80 50 99 67 38 33 45 30 59 -23 16 -60 7 -150 -22 -204 -32 -64 -59 -92
-127 -137 -78 -51 -97 -103 -64 -167 34 -65 110 -73 196 -21 122 74 214 204
243 341 12 58 13 172 2 225 -29 137 -151 301 -232 311 -25 3 -50 -1 -68 -11z"/>
<path d="M2348 4090 c-45 -13 -85 -47 -107 -92 -20 -41 -20 -55 -21 -632 0
-324 -3 -592 -6 -595 -3 -3 -301 -6 -662 -7 -650 -1 -658 -1 -713 -23 -139
-54 -232 -153 -273 -291 -13 -45 -16 -160 -16 -838 0 -432 -2 -787 -4 -789 -1
-2 -26 -9 -53 -16 -64 -17 -104 -49 -139 -111 -26 -48 -27 -55 -27 -201 -1
-137 2 -156 22 -198 27 -55 77 -100 130 -116 29 -8 572 -11 2072 -11 1949 1
2036 1 2074 19 49 22 87 60 111 109 16 31 19 62 19 197 0 144 -2 164 -22 200
-38 72 -109 119 -188 124 -8 1 -11 241 -11 758 -1 417 -2 778 -4 803 -9 127
-94 259 -207 326 -99 58 -83 56 -783 60 -355 1 -652 3 -660 3 -14 1 -16 59
-16 514 -1 556 1 544 -56 597 -19 17 -257 158 -335 199 -30 15 -91 20 -125 11z
m230 -333 c28 -15 53 -34 53 -40 3 -28 4 -187 2 -187 -2 0 -44 23 -93 51 l-90
51 0 99 0 99 38 -22 c20 -12 61 -35 90 -51z m-34 -333 c45 -26 83 -49 86 -51
10 -9 6 -263 -5 -263 -5 1 -46 22 -90 49 l-80 48 -3 131 c-1 73 0 132 4 132 4
0 43 -21 88 -46z m4 -429 c45 -26 82 -50 83 -53 7 -43 3 -172 -5 -175 -6 -1
-47 -3 -91 -2 l-80 0 -3 143 c-1 79 1 142 5 139 4 -2 45 -26 91 -52z m1657
-487 c82 -54 98 -96 100 -267 l1 -123 -55 -24 c-73 -32 -128 -79 -203 -172
-113 -141 -162 -171 -255 -158 -59 8 -101 38 -158 115 -28 36 -54 71 -60 77
-5 6 -28 34 -50 61 -45 57 -118 111 -185 137 -104 41 -259 28 -358 -30 -63
-37 -108 -84 -234 -241 -31 -39 -72 -80 -91 -91 -69 -44 -166 -37 -227 15 -18
14 -66 72 -107 127 -88 117 -138 166 -208 200 -96 47 -196 58 -299 31 -99 -26
-173 -80 -265 -195 -139 -174 -188 -214 -269 -219 -73 -4 -122 28 -218 145
-113 137 -164 180 -257 214 l-28 10 2 134 c1 115 4 140 22 176 24 46 61 77
113 95 24 8 464 11 1641 10 l1608 -1 40 -26z m-2181 -587 c21 -14 75 -74 127
-142 145 -192 228 -243 399 -243 163 0 239 42 378 209 119 145 156 180 200
193 49 15 75 15 122 1 50 -15 83 -47 172 -164 41 -55 94 -117 116 -137 83 -75
198 -114 305 -105 159 14 231 59 368 228 45 55 83 98 85 96 4 -3 7 -623 5
-932 l-1 -110 -1758 0 -1757 0 -3 523 c-1 337 1 521 8 517 5 -3 44 -47 87 -98
93 -111 131 -148 186 -180 69 -41 139 -57 230 -53 146 6 232 55 352 202 172
209 194 226 286 221 36 -2 68 -11 93 -26z m2506 -1427 l0 -94 -1987 3 -1987 2
1 70 c0 39 1 80 2 92 l1 21 1985 0 1985 0 0 -94z"/>
</g>
</svg>
